<svg width="65" height="64" viewBox="0 0 65 64" fill="none" xmlns="http://www.w3.org/2000/svg">
<rect x="0.268555" width="64" height="64" rx="12" fill="#FEEDEC"/>
<path d="M26.8284 33.9596C28.7084 33.9596 30.215 35.481 30.215 37.3743V41.9196C30.215 43.7996 28.7084 45.333 26.8284 45.333H22.3217C20.455 45.333 18.935 43.7996 18.935 41.9196V37.3743C18.935 35.481 20.455 33.9596 22.3217 33.9596H26.8284ZM42.2152 33.9596C44.0818 33.9596 45.6018 35.481 45.6018 37.3743V41.9196C45.6018 43.7996 44.0818 45.333 42.2152 45.333H37.7085C35.8285 45.333 34.3218 43.7996 34.3218 41.9196V37.3743C34.3218 35.481 35.8285 33.9596 37.7085 33.9596H42.2152ZM26.8284 18.6667C28.7084 18.6667 30.215 20.2 30.215 22.0814V26.6267C30.215 28.52 28.7084 30.04 26.8284 30.04H22.3217C20.455 30.04 18.935 28.52 18.935 26.6267V22.0814C18.935 20.2 20.455 18.6667 22.3217 18.6667H26.8284ZM42.2152 18.6667C44.0818 18.6667 45.6018 20.2 45.6018 22.0814V26.6267C45.6018 28.52 44.0818 30.04 42.2152 30.04H37.7085C35.8285 30.04 34.3218 28.52 34.3218 26.6267V22.0814C34.3218 20.2 35.8285 18.6667 37.7085 18.6667H42.2152Z" fill="#FF6A58"/>
</svg>
