<svg width="65" height="64" viewBox="0 0 65 64" fill="none" xmlns="http://www.w3.org/2000/svg">
<rect x="0.268555" width="64" height="64" rx="12" fill="#F5EBF2"/>
<path d="M38.7239 20.1411C43.3224 20.1411 46.0365 22.7872 46.0365 27.3168H40.395V27.3631C37.7768 27.3631 35.6543 29.4324 35.6543 31.9851C35.6543 34.5378 37.7768 36.6072 40.395 36.6072H46.0365V37.0232C46.0365 41.495 43.3224 44.1411 38.7239 44.1411H26.6824C22.0839 44.1411 19.3698 41.495 19.3698 37.0232V27.2591C19.3698 22.7872 22.0839 20.1411 26.6824 20.1411H38.7239ZM45.0409 29.3043C45.5908 29.3043 46.0365 29.7389 46.0365 30.275V33.6491C46.0301 34.1825 45.5881 34.6134 45.0409 34.6197H40.5017C39.1762 34.6371 38.0171 33.7523 37.7165 32.4935C37.5659 31.7122 37.7773 30.9059 38.2939 30.2907C38.8105 29.6756 39.5796 29.3145 40.395 29.3043H45.0409ZM41.035 30.8643H40.5965C40.3273 30.8612 40.068 30.9633 39.8765 31.1478C39.685 31.3324 39.5772 31.584 39.5772 31.8465C39.5772 32.3972 40.0316 32.8454 40.5965 32.8518H41.035C41.5979 32.8518 42.0543 32.4068 42.0543 31.858C42.0543 31.3092 41.5979 30.8643 41.035 30.8643ZM33.2128 25.3294H25.6868C25.1285 25.3293 24.6741 25.7672 24.6676 26.3116C24.6676 26.8623 25.122 27.3105 25.6868 27.3168H33.2128C33.7757 27.3168 34.232 26.8719 34.232 26.3231C34.232 25.7743 33.7757 25.3294 33.2128 25.3294Z" fill="#C167A6"/>
</svg>
