<svg width="49" height="54" viewBox="0 0 49 54" fill="none" xmlns="http://www.w3.org/2000/svg">
<path d="M36.0959 0.333313C44.3333 0.333313 48.9199 5.07998 48.9199 13.2133V40.76C48.9199 49.0266 44.3333 53.6666 36.0959 53.6666H13.7466C5.63992 53.6666 0.919922 49.0266 0.919922 40.76V13.2133C0.919922 5.07998 5.63992 0.333313 13.7466 0.333313H36.0959ZM14.4666 36.9733C13.6666 36.8933 12.8933 37.2666 12.4666 37.96C12.0399 38.6266 12.0399 39.5066 12.4666 40.2C12.8933 40.8666 13.6666 41.2666 14.4666 41.16H35.3733C36.4373 41.0533 37.2399 40.144 37.2399 39.08C37.2399 37.9866 36.4373 37.08 35.3733 36.9733H14.4666ZM35.3733 24.8106H14.4666C13.3173 24.8106 12.3866 25.7466 12.3866 26.8933C12.3866 28.04 13.3173 28.9733 14.4666 28.9733H35.3733C36.5199 28.9733 37.4533 28.04 37.4533 26.8933C37.4533 25.7466 36.5199 24.8106 35.3733 24.8106ZM22.4373 12.7333H14.4666V12.76C13.3173 12.76 12.3866 13.6933 12.3866 14.84C12.3866 15.9866 13.3173 16.92 14.4666 16.92H22.4373C23.5866 16.92 24.5199 15.9866 24.5199 14.8106C24.5199 13.6666 23.5866 12.7333 22.4373 12.7333Z" fill="#FF6A58"/>
</svg>
