<svg width="33" height="32" viewBox="0 0 33 32" fill="none" xmlns="http://www.w3.org/2000/svg">
<path d="M10.8284 17.9596C12.7084 17.9596 14.215 19.481 14.215 21.3743V25.9196C14.215 27.7996 12.7084 29.333 10.8284 29.333H6.32169C4.45503 29.333 2.93503 27.7996 2.93503 25.9196V21.3743C2.93503 19.481 4.45503 17.9596 6.32169 17.9596H10.8284ZM26.2152 17.9596C28.0818 17.9596 29.6018 19.481 29.6018 21.3743V25.9196C29.6018 27.7996 28.0818 29.333 26.2152 29.333H21.7085C19.8285 29.333 18.3218 27.7996 18.3218 25.9196V21.3743C18.3218 19.481 19.8285 17.9596 21.7085 17.9596H26.2152ZM10.8284 2.66669C12.7084 2.66669 14.215 4.20002 14.215 6.08135V10.6267C14.215 12.52 12.7084 14.04 10.8284 14.04H6.32169C4.45503 14.04 2.93503 12.52 2.93503 10.6267V6.08135C2.93503 4.20002 4.45503 2.66669 6.32169 2.66669H10.8284ZM26.2152 2.66669C28.0818 2.66669 29.6018 4.20002 29.6018 6.08135V10.6267C29.6018 12.52 28.0818 14.04 26.2152 14.04H21.7085C19.8285 14.04 18.3218 12.52 18.3218 10.6267V6.08135C18.3218 4.20002 19.8285 2.66669 21.7085 2.66669H26.2152Z" fill="#FF6A58"/>
</svg>
