<svg width="33" height="33" viewBox="0 0 33 33" fill="none" xmlns="http://www.w3.org/2000/svg">
<path d="M22.7239 4.14111C27.3224 4.14111 30.0365 6.78724 30.0365 11.3168H24.395V11.3631C21.7768 11.3631 19.6543 13.4324 19.6543 15.9851C19.6543 18.5378 21.7768 20.6072 24.395 20.6072H30.0365V21.0232C30.0365 25.495 27.3224 28.1411 22.7239 28.1411H10.6824C6.08389 28.1411 3.36981 25.495 3.36981 21.0232V11.2591C3.36981 6.78724 6.08389 4.14111 10.6824 4.14111H22.7239ZM29.0409 13.3043C29.5908 13.3043 30.0365 13.7389 30.0365 14.275V17.6491C30.0301 18.1825 29.5881 18.6134 29.0409 18.6197H24.5017C23.1762 18.6371 22.0171 17.7523 21.7165 16.4935C21.5659 15.7122 21.7773 14.9059 22.2939 14.2907C22.8105 13.6756 23.5796 13.3145 24.395 13.3043H29.0409ZM25.035 14.8643H24.5965C24.3273 14.8612 24.068 14.9633 23.8765 15.1478C23.685 15.3324 23.5772 15.584 23.5772 15.8465C23.5772 16.3972 24.0316 16.8454 24.5965 16.8518H25.035C25.5979 16.8518 26.0543 16.4068 26.0543 15.858C26.0543 15.3092 25.5979 14.8643 25.035 14.8643ZM17.2128 9.32937H9.68685C9.12852 9.32933 8.67408 9.76724 8.66759 10.3116C8.66759 10.8623 9.12202 11.3105 9.68685 11.3168H17.2128C17.7757 11.3168 18.232 10.8719 18.232 10.3231C18.232 9.77428 17.7757 9.32937 17.2128 9.32937Z" fill="#C167A6"/>
</svg>
