<svg width="25" height="25" viewBox="0 0 25 25" fill="none" xmlns="http://www.w3.org/2000/svg">
<path d="M4.26855 12.2001C4.26855 11.8204 4.55071 11.5066 4.91678 11.457L5.01855 11.4501L18.2026 11.4507L13.4396 6.7072C13.146 6.41494 13.145 5.94007 13.4373 5.64654C13.703 5.37971 14.1196 5.3546 14.4137 5.57182L14.4979 5.64426L20.5479 11.6683C20.5866 11.7068 20.6202 11.7485 20.6488 11.7925C20.6568 11.8058 20.665 11.8193 20.6728 11.8332C20.6799 11.845 20.6864 11.8573 20.6925 11.8698C20.701 11.8879 20.7092 11.9066 20.7167 11.9257C20.7229 11.9404 20.7279 11.9547 20.7326 11.9691C20.7381 11.987 20.7435 12.0061 20.7481 12.0255C20.7515 12.039 20.7543 12.052 20.7566 12.065C20.76 12.0845 20.7628 12.1046 20.7648 12.1249C20.7666 12.1405 20.7676 12.1558 20.7682 12.1712C20.7684 12.1805 20.7686 12.1903 20.7686 12.2001L20.7682 12.2292C20.7676 12.2439 20.7666 12.2586 20.7652 12.2733L20.7686 12.2001C20.7686 12.2475 20.7642 12.2938 20.7558 12.3387C20.7538 12.3494 20.7515 12.3604 20.749 12.3714C20.7436 12.3939 20.7375 12.4157 20.7304 12.437C20.7269 12.4476 20.7229 12.4589 20.7185 12.4701C20.7098 12.4927 20.7002 12.5142 20.6898 12.5352C20.6849 12.545 20.6794 12.5553 20.6737 12.5655C20.6643 12.5822 20.6547 12.598 20.6445 12.6135C20.6373 12.6244 20.6293 12.6357 20.621 12.6469L20.6145 12.6556C20.5943 12.682 20.5724 12.707 20.5489 12.7305L20.548 12.7312L14.498 18.7562C14.2045 19.0484 13.7296 19.0475 13.4373 18.754C13.1716 18.4871 13.1483 18.0704 13.3667 17.7773L13.4395 17.6933L18.2006 12.9507L5.01855 12.9501C4.60434 12.9501 4.26855 12.6143 4.26855 12.2001Z" fill="#0199B3"/>
</svg>
