<svg width="19" height="21" viewBox="0 0 19 21" fill="none" xmlns="http://www.w3.org/2000/svg">
<path d="M9.91992 0C4.95732 0 0.919922 3.92664 0.919922 8.7531C0.919922 14.3148 4.63062 17.6703 7.09167 19.891C7.87467 20.6311 8.90157 21 9.92622 21C10.9486 21 11.9688 20.6324 12.7405 19.8984C15.2011 17.6778 18.9199 14.3205 18.9199 8.7531C18.9199 3.92664 14.8825 0 9.91992 0ZM9.91992 12.2543C7.93497 12.2543 6.31992 10.6836 6.31992 8.7531C6.31992 6.8226 7.93497 5.25186 9.91992 5.25186C11.9049 5.25186 13.5199 6.8226 13.5199 8.7531C13.5199 10.6836 11.9049 12.2543 9.91992 12.2543Z" fill="#01B9D0"/>
</svg>
