<svg width="28" height="28" viewBox="0 0 28 28" fill="none" xmlns="http://www.w3.org/2000/svg">
<path d="M20.3581 0.821581C22.2761 0.701705 24.1675 1.36768 25.5927 2.673C26.8981 4.09819 27.564 5.98957 27.4575 7.9209V20.3614C27.5774 22.2927 26.8981 24.1841 25.6061 25.6093C24.1808 26.9146 22.2761 27.5806 20.3581 27.4607H7.91754C5.98619 27.5806 4.0948 26.9146 2.6696 25.6093C1.36427 24.1841 0.698286 22.2927 0.818163 20.3614V7.9209C0.698286 5.98957 1.36427 4.09819 2.6696 2.673C4.0948 1.36768 5.98619 0.701705 7.91754 0.821581H20.3581ZM20.0118 6.90862C19.186 6.0828 17.854 6.0828 17.0282 6.90862L16.1358 7.81435C16.0026 7.94754 16.0026 8.17397 16.1358 8.30717C16.1358 8.30717 16.1619 8.33315 16.2085 8.37941L16.5361 8.70525C16.7256 8.89381 16.9621 9.12928 17.1997 9.36607L18.0051 10.1711C18.1732 10.34 18.2847 10.4531 18.2936 10.4649C18.4401 10.6248 18.5333 10.8379 18.5333 11.0776C18.5333 11.5571 18.147 11.9567 17.6542 11.9567C17.4278 11.9567 17.2147 11.8635 17.0681 11.717L14.8438 9.50593C14.7372 9.39937 14.5507 9.39937 14.4442 9.50593L8.0907 15.8594C7.65115 16.2989 7.39808 16.885 7.38476 17.511L7.30484 20.6677C7.30484 20.8409 7.35812 21.0007 7.47799 21.1206C7.59787 21.2405 7.75771 21.3071 7.93086 21.3071H11.061C11.7003 21.3071 12.313 21.054 12.7792 20.6011L21.7433 11.6104C22.5558 10.7846 22.5558 9.45265 21.7433 8.64016L20.0118 6.90862Z" fill="#019CB6"/>
</svg>
